# xmcd
#
# Track frame offsets:
#	182
#	14155
#	22295
#	35872
#	49120
#	62722
#	72907
#	87912
#	99775
#	112417
#
# Disc length: 1651 seconds
#
# Revision: 1
# Processed by: cddbd v1.5PL3 Copyright (c) Steve Scherf et al.
# Submitted via: audiograbber 1.82.02
#
DISCID=9206710a
DTITLE=Willie Nelson - Willie Nelson - Volume 2
DYEAR=1994
DGENRE=Country
TTITLE0=Home Is Where You're Happy
TTITLE1=Things To Remember
TTITLE2=Undo The Wrong
TTITLE3=I Just Don't Understand
TTITLE4=You'll Always Have Someone
TTITLE5=Healing Hands Of Time
TTITLE6=And So Will You My Love
TTITLE7=Night Life
TTITLE8=Any Old Arms Won't Do
TTITLE9=December Days
EXTD=
EXTT0=
EXTT1=
EXTT2=
EXTT3=
EXTT4=
EXTT5=
EXTT6=
EXTT7=
EXTT8=
EXTT9=
PLAYORDER=
